<svg width="711" height="921" viewBox="0 0 711 921" fill="none" xmlns="http://www.w3.org/2000/svg">
<path d="M520.5 745C551.309 800.39 517.481 885.573 580 896C639.243 905.881 670.772 844.729 689 787.5C714.254 708.209 656.805 658.115 609 590C541.538 493.877 444.883 499.392 367 411.5C298.575 334.281 296.684 264.564 231 185C168.167 108.89 57.9997 15 44 15C27.9837 15 14.9999 27.9837 15 44C15.0003 74 144.034 115.8 205.5 185C278.173 266.817 290.437 333.552 335 433.5C361.829 493.673 365.584 532.643 398 590C435.961 657.168 482.997 677.575 520.5 745Z" stroke="white" stroke-width="30"/>
<line x1="580.839" y1="874.455" x2="572.956" y2="914.661" stroke="black" stroke-width="11" stroke-linecap="round"/>
</svg>
